<?xml version="1.0" encoding="UTF-8" standalone="no"?><svg width="80" height="28" viewBox="0 0 80 28" xmlns="http://www.w3.org/2000/svg"><title>xella-small</title><path d="M11.11 20.369l3.152 5.46h4.478l-5.399-9.284-2.232 3.824zM20.996.295h-4.579L.331 27.936h4.568L20.997.296zM9.244 9.516l-2.798-4.85H1.959l5.05 8.687 2.235-3.837zm65.971 3.986l-.007-2.182c0-1.98-1.248-2.678-4.183-2.678-2.132 0-3.14.412-3.865 1.606l-3.22-2.514c1.57-2.224 3.825-3.05 6.882-3.05 5.03 0 8.492 1.732 8.492 6.883v14.258h-4.106v-8.86h-4.91c-2.412 0-3.542.99-3.542 2.513 0 1.404 1.089 2.637 3.868 2.637 1.21 0 2.142-.052 2.839-.258l-.004 3.55c-.801.334-2.323.664-3.692.664-4.546 0-7.203-2.761-7.203-6.387 0-3.338 2.254-6.182 6.641-6.182h6.01zM37.72 16.927H26.761v-3.453h6.855c-.12-3.164-1.891-4.847-4.306-4.847-2.413 0-4.225 1.683-4.304 4.847v3.453c0 3.411 2.052 5.136 4.868 5.136 1.57 0 3.26-.741 4.468-2.012l2.978 2.587c-2.01 2.383-4.629 3.369-7.365 3.369-4.185 0-9.053-2.054-9.053-10.6 0-8.095 4.466-10.725 8.41-10.725 4.506 0 8.41 3.411 8.41 8.794v3.451h-.002zm3.53 3.876V.295h4.089v20.182c0 .937.52 1.424 1.522 1.424h1.398v3.914h-1.8c-2.963 0-5.209-1.304-5.209-5.012zm12.059 0V.295h4.09v20.182c0 .937.522 1.424 1.523 1.424h1.403v3.914h-1.802c-2.969 0-5.214-1.304-5.214-5.012z" fill="#000" fill-rule="evenodd"/></svg>